<?xml version="1.0" encoding="UTF-8"?>
<svg id="Layer_2" data-name="Layer 2" xmlns="http://www.w3.org/2000/svg" xmlns:xlink="http://www.w3.org/1999/xlink" viewBox="0 0 396 419.81">
  <defs>
    <style>
      .cls-1 {
        fill: url(#linear-gradient);
        stroke-width: 0px;
      }
    </style>
    <linearGradient id="linear-gradient" x1="-12.63" y1="382.2" x2="383.67" y2="134.57" gradientUnits="userSpaceOnUse">
      <stop offset="0" stop-color="#69a9ff"/>
      <stop offset=".09" stop-color="rgba(111, 166, 251, .95)" stop-opacity=".95"/>
      <stop offset=".25" stop-color="rgba(130, 161, 240, .83)" stop-opacity=".83"/>
      <stop offset=".46" stop-color="rgba(160, 151, 224, .63)" stop-opacity=".63"/>
      <stop offset=".71" stop-color="rgba(202, 139, 200, .35)" stop-opacity=".35"/>
      <stop offset="1" stop-color="#ff7bac" stop-opacity="0"/>
    </linearGradient>
  </defs>
  <g id="Layer_1-2" data-name="Layer 1">
    <path class="cls-1" d="M392.06,181.99c-2.66-14.85-6.55-29.17-11.53-42.77-5.02-13.65-11.13-26.58-18.27-38.72-7.09-12.15-15.22-23.41-24.18-33.74-8.96-10.33-18.77-19.62-29.31-27.82-10.54-8.2-21.77-15.26-33.64-21.02-11.87-5.76-24.28-10.23-37.19-13.29-12.9-3.01-26.25-4.62-39.9-4.62h0c-13.69,0-26.99,1.61-39.9,4.62-12.9,3.01-25.32,7.53-37.19,13.29-11.82,5.76-23.1,12.82-33.64,21.02-10.54,8.2-20.34,17.55-29.31,27.82-8.96,10.33-17.04,21.59-24.18,33.74-7.14,12.15-13.25,25.07-18.27,38.72-5.02,13.65-8.91,27.93-11.53,42.77-2.66,14.85-4.04,30.21-4.04,45.94v166.78c0,13.18,9.26,23.83,20.69,23.83,6.85,1.19,16.99,2.13,28.81,0,26.25-4.72,30.93-19.21,49.6-20.24,22.95-1.25,25.51,20.14,49.4,20.24,23.4.05,26.7-20.45,49.99-20.24,23,.21,26.1,20.3,49.01,20.24,23.44-.05,25.81-21.13,48.56-20.24,18.86.73,23.89,15.47,50.44,20.24,12.21,2.18,22.46,1.09,28.81,0,11.43,0,20.69-10.69,20.69-23.83v-166.78c0-15.73-1.38-31.09-4.04-45.94h.1ZM152.74,171.61c-7.39,29.9-33.25,48.69-57.77,41.94-24.53-6.75-38.42-36.44-30.98-66.34,7.39-29.9,33.25-48.69,57.77-41.94,24.53,6.75,38.42,36.44,30.98,66.34ZM197.51,259.44c-19.01,0-34.43-16.3-34.43-36.28,0-3.53,2.71-6.38,6.06-6.38s6.06,2.85,6.06,6.38c0,12.93,10,23.46,22.26,23.46s22.26-10.54,22.26-23.46c0-3.53,2.71-6.38,6.06-6.38s6.06,2.85,6.06,6.38c0,20.04-15.47,36.28-34.43,36.28h.1ZM301.24,213.55c-24.53,6.75-50.39-12.04-57.77-41.94-7.39-29.9,6.5-59.59,30.98-66.34,24.53-6.75,50.39,12.04,57.77,41.94,7.39,29.9-6.5,59.59-30.98,66.34Z"/>
  </g>
</svg>