<?xml version="1.0" encoding="UTF-8"?>
<svg id="Layer_2" data-name="Layer 2" xmlns="http://www.w3.org/2000/svg" viewBox="0 0 584.59 107.91">
  <defs>
    <style>
      .cls-1 {
        fill: #fdffd1;
        stroke-width: 0px;
      }
    </style>
  </defs>
  <g id="Layer_1-2" data-name="Layer 1">
    <g>
      <g>
        <path class="cls-1" d="M524.27,32.56c-1.37,0-2.65-.15-3.82-.44-1.17-.3-2.13-.86-2.86-1.69-.73-.83-1.1-2.06-1.1-3.68,0-1.36.32-2.5.96-3.42.64-.92,1.43-1.7,2.38-2.35.94-.65,1.86-1.24,2.74-1.77l7.09-4.3c1.16-.71,1.92-1.3,2.29-1.77.37-.47.55-.99.55-1.55,0-.5-.16-.93-.48-1.29-.32-.35-1.06-.53-2.22-.53s-2.32.12-3.57.35c-1.25.24-2.45.36-3.61.36-1.68,0-3.04-.39-4.09-1.18-1.05-.78-1.58-1.94-1.58-3.48s.55-2.64,1.65-3.48c1.1-.84,2.58-1.44,4.46-1.8,1.88-.35,3.97-.53,6.29-.53,3.75,0,6.65.68,8.71,2.04,2.06,1.36,3.09,3.48,3.09,6.34,0,1.98-.59,3.67-1.76,5.06-1.17,1.39-2.8,2.75-4.87,4.08l-8.46,5.41h10.47c1.71,0,3.06.41,4.05,1.22.99.81,1.49,2.02,1.49,3.62s-.5,2.79-1.49,3.59c-.99.8-2.34,1.2-4.05,1.2h-12.26Z"/>
        <path class="cls-1" d="M550.61,33.4c-1.8,0-3.2-.47-4.21-1.4-1.01-.93-1.51-2.17-1.51-3.7s.52-2.84,1.55-3.82c1.04-.98,2.42-1.46,4.16-1.46s3.07.48,4.09,1.44c1.02.96,1.53,2.23,1.53,3.79s-.49,2.78-1.46,3.73c-.98.95-2.36,1.42-4.16,1.42Z"/>
        <path class="cls-1" d="M571.51,32.7c-3.05,0-5.53-.67-7.45-2-1.92-1.33-3.33-3.22-4.23-5.68-.9-2.45-1.35-5.34-1.35-8.65s.48-6.19,1.44-8.63c.96-2.44,2.4-4.34,4.32-5.7,1.92-1.36,4.35-2.04,7.27-2.04s5.36.68,7.29,2.04c1.94,1.36,3.38,3.26,4.34,5.7.96,2.44,1.44,5.32,1.44,8.63s-.45,6.2-1.35,8.65c-.9,2.46-2.31,4.35-4.23,5.68-1.92,1.33-4.42,2-7.5,2ZM563.6,15.75c0,.92.21,1.78.62,2.6.41.81,1.19,1.46,2.33,1.95,1.14.49,2.8.73,4.96.73s3.86-.24,5.01-.73c1.14-.49,1.92-1.14,2.33-1.95.41-.81.62-1.68.62-2.6s-.21-1.8-.62-2.55c-.41-.75-1.19-1.36-2.33-1.82-1.14-.46-2.81-.69-5.01-.69s-3.82.23-4.96.69c-1.14.46-1.92,1.06-2.33,1.82-.41.75-.62,1.6-.62,2.55Z"/>
      </g>
      <g>
        <path class="cls-1" d="M148.95,56.69l16.1-22.76c2.86-4.08,5.97-6.38,9.34-6.92s6.41.26,9.13,2.42c1.79,1.37,2.97,3.18,3.55,5.48.58,2.28.39,4.73-.54,7.3-.93,2.57-2.78,5-5.58,7.3l-17.92,14.48v2.26c2.28,0,4.98.29,8.05.85,3.07.58,5.87,1.86,8.38,3.86,2,1.5,3.74,3.22,5.2,5.15,1.47,1.93,2.63,4.31,3.49,7.14.85,2.82,1.29,6.38,1.29,10.68,0,3.51-.95,6.32-2.85,8.43-1.89,2.11-4.7,3.16-8.43,3.16s-6.57-1.05-8.53-3.16-2.95-4.92-2.95-8.43c0-3.94-.63-7.06-1.88-9.39-1.25-2.32-2.92-4.02-4.99-5.09s-4.33-1.62-6.76-1.62h-5.25v16.85c0,3.07-1.05,5.62-3.16,7.62-2.11,2.01-4.82,3.01-8.1,3.01s-5.99-1-8.1-3.01c-2.11-2-3.16-4.54-3.16-7.62v-56.78c0-3.15,1.04-5.79,3.11-7.94,2.07-2.14,4.79-3.22,8.15-3.22,3.57,0,6.36,1.05,8.31,3.16,1.97,2.11,2.95,4.7,2.95,7.79v18.78l1.18.21h0Z"/>
        <path class="cls-1" d="M193.39,36.51c0-3.07.95-5.57,2.85-7.46s4.53-2.85,7.89-2.85c3.57,0,6.24.93,8,2.78,1.75,1.86,2.63,4.33,2.63,7.41s-.88,5.42-2.63,7.25c-1.76,1.83-4.43,2.73-8,2.73s-6.17-.91-8-2.73c-1.83-1.83-2.73-4.2-2.73-7.14h-.01ZM204.11,105.09c-3.36,0-5.87-.93-7.51-2.78-1.64-1.86-2.47-4.19-2.47-6.97v-36.7c0-3.07.83-5.51,2.47-7.3s4.15-2.68,7.51-2.68,5.88.89,7.56,2.68,2.52,4.15,2.52,7.08v36.92c0,2.78-.88,5.12-2.63,6.97-1.76,1.86-4.24,2.78-7.46,2.78Z"/>
        <path class="cls-1" d="M244.9,105.09c-4.15,0-7.54-1.35-10.14-4.08-2.61-2.72-4.99-7.2-7.14-13.42l-8.15-24.25c-.93-2.72-.97-5.48-.11-8.26.85-2.8,2.82-4.69,5.91-5.69,2.86-1,5.48-.93,7.84.21s4,3.11,4.94,5.91l8.8,26.3c1,3.07,2.04,5.13,3.11,6.17,1.08,1.04,2.51,1.27,4.29.7,1.5-.5,2.46-1.59,2.85-3.27s-.13-4.6-1.56-8.75l-4.4-13.31c-.93-2.78-.95-5.57-.05-8.31.89-2.76,2.88-4.64,5.96-5.63,2.86-1,5.48-.93,7.84.21s4,3.11,4.94,5.91l9.02,27.47c.58,1.64,1.47,3.15,2.68,4.5,1.22,1.37,2.78,1.76,4.73,1.18,1.5-.5,2.48-1.5,2.95-3.01.46-1.5.38-3.26-.26-5.27-.85-2.72-1.81-4.86-2.85-6.43s-2.04-2.93-3.01-4.08c-.97-1.14-1.76-2.36-2.36-3.65s-.98-3.05-1.13-5.27c-.14-2.28.34-4.31,1.44-6.07,1.1-1.75,2.61-3.13,4.5-4.14,1.89-1,3.99-1.5,6.28-1.5,3.51,0,6.34,1.17,8.53,3.49,2.18,2.32,3.27,5.07,3.27,8.21,0,1.14-.18,2.65-.54,4.5-.35,1.86-.83,3.58-1.39,5.15l-4.5,11.7c-.93,2.57-1.98,5.2-3.16,7.89s-2.53,5.13-4.08,7.35c-1.54,2.22-3.31,4.03-5.32,5.42s-4.33,2.09-6.97,2.09c-4.58,0-8.25-1.18-11-3.55-2.76-2.36-4.92-6.26-6.5-11.7h-1.08c-.93,4.44-2.47,8.09-4.61,10.95-2.14,2.86-5.33,4.29-9.55,4.29h-.01Z"/>
        <path class="cls-1" d="M307.57,36.51c0-3.07.95-5.57,2.85-7.46s4.53-2.85,7.89-2.85c3.57,0,6.24.93,8,2.78,1.75,1.86,2.63,4.33,2.63,7.41s-.88,5.42-2.63,7.25c-1.76,1.83-4.43,2.73-8,2.73s-6.17-.91-8-2.73c-1.83-1.83-2.73-4.2-2.73-7.14h-.01ZM318.3,105.09c-3.36,0-5.87-.93-7.51-2.78-1.64-1.86-2.47-4.19-2.47-6.97v-36.7c0-3.07.83-5.51,2.47-7.3s4.15-2.68,7.51-2.68,5.88.89,7.56,2.68,2.52,4.15,2.52,7.08v36.92c0,2.78-.88,5.12-2.63,6.97-1.76,1.86-4.24,2.78-7.46,2.78Z"/>
        <path class="cls-1" d="M377.33,104.99c-3.3-.14-6.36-.6-9.18-1.39s-5.32-2.13-7.46-4.02c-2.14-1.89-3.81-4.53-4.99-7.89-1.18-3.36-1.77-7.66-1.77-12.88s.7-9.48,2.09-13.2,3.06-6.68,4.99-8.9,3.69-3.57,5.25-4.08l-.54-2.04h-1.83c-3.3,0-5.88-1.05-7.79-3.16-1.89-2.11-2.88-4.95-2.95-8.53-.07-3.57.88-6.46,2.85-8.64s4.6-3.27,7.89-3.27h29.52c7.72,0,13.3,1.84,16.74,5.53,3.44,3.69,5.15,8.46,5.15,14.33,0,4.73-1.09,8.65-3.27,11.8-2.18,3.15-5.46,5.04-9.82,5.69v1.62c4.73.21,8.56,1.84,11.54,4.88,2.97,3.05,4.45,7.54,4.45,13.47,0,6.43-1.86,11.54-5.58,15.3s-9.83,5.59-18.36,5.53l-16.95-.11v-.03ZM374.43,56.8c0,1.58.29,2.61.85,3.11.58.5,1.64.75,3.22.75h9.87c2.72,0,4.79-.41,6.22-1.23,1.43-.83,2.14-2.46,2.14-4.88s-.72-4.15-2.14-4.94c-1.43-.79-3.51-1.18-6.22-1.18h-9.87c-1.58,0-2.65.21-3.22.64-.58.43-.85,1.47-.85,3.11v4.61h0ZM374.43,78.37c0,1.58.3,2.65.91,3.22.6.58,1.73.85,3.37.85h11.06c2.8,0,4.94-.5,6.43-1.5,1.5-1,2.26-2.78,2.26-5.37s-.75-4.35-2.26-5.32c-1.5-.97-3.65-1.44-6.43-1.44h-11.06c-1.64,0-2.77.25-3.37.75-.6.5-.91,1.54-.91,3.11v5.69h0Z"/>
        <path class="cls-1" d="M449.77,105.31c-8.38,0-15.05-2.48-20.01-7.46-4.98-4.98-7.46-12-7.46-21.09,0-5.58,1.14-10.48,3.44-14.71,2.28-4.21,5.49-7.52,9.6-9.93,4.11-2.39,8.93-3.6,14.43-3.6,6.16,0,11.27,1.19,15.35,3.6,4.08,2.4,7.14,5.71,9.18,9.93,2.04,4.23,3.06,9.13,3.06,14.71,0,9.09-2.27,16.11-6.81,21.09-4.54,4.98-11.46,7.46-20.77,7.46h0ZM435.07,74.94c0,2.22,1.1,3.78,3.32,4.67s6.01,1.34,11.37,1.34,9.15-.45,11.37-1.34,3.32-2.46,3.32-4.67-1.12-3.65-3.32-4.5c-2.22-.85-6.01-1.29-11.37-1.29s-9.17.43-11.37,1.29c-2.22.85-3.32,2.36-3.32,4.5Z"/>
        <path class="cls-1" d="M508.38,105.42c-3.79,0-7.21-.85-10.26-2.57s-5.42-4.16-7.14-7.35c-1.72-3.18-2.57-6.92-2.57-11.21v-18.9l-3.97.54c-2.14.29-4.04-.46-5.69-2.26-1.64-1.79-2.47-4.04-2.47-6.76s.83-4.95,2.47-6.71c1.64-1.75,3.55-2.48,5.69-2.21l3.97.54-.11-7.3c-.07-2.86.75-5.13,2.47-6.81,1.72-1.68,4.21-2.52,7.51-2.52s5.83.84,7.62,2.52c1.79,1.68,2.61,3.95,2.47,6.81l-.21,7.3,5.69-.75c3.86-.58,6.8.13,8.8,2.09,2,1.97,3.01,4.31,3.01,7.02s-.98,5.07-2.95,7.02c-1.97,1.97-4.82,2.7-8.53,2.21l-6.01-.75v15.99c0,.93.33,1.77.97,2.52s1.43.98,2.36.7c1.08-.29,2.21-.89,3.37-1.83,1.18-.93,2.7-1.39,4.56-1.39,2.8,0,4.94,1,6.43,3.01,1.5,2.01,2.26,4.48,2.26,7.41,0,2.28-.8,4.49-2.42,6.6s-3.89,3.81-6.81,5.09c-2.93,1.29-6.43,1.93-10.52,1.93h.03Z"/>
      </g>
      <path class="cls-1" d="M99.17,47.75c-.67-3.76-1.66-7.38-2.92-10.82-1.27-3.45-2.82-6.72-4.62-9.8-1.79-3.07-3.85-5.92-6.12-8.53s-4.75-4.96-7.41-7.04c-2.67-2.07-5.51-3.86-8.51-5.32s-6.14-2.59-9.41-3.36c-3.26-.76-6.64-1.17-10.09-1.17h0c-3.46,0-6.83.41-10.09,1.17s-6.4,1.9-9.41,3.36c-2.99,1.46-5.84,3.24-8.51,5.32-2.67,2.07-5.15,4.44-7.41,7.04-2.27,2.61-4.31,5.46-6.12,8.53s-3.35,6.34-4.62,9.8-2.26,7.06-2.92,10.82c-.67,3.76-1.02,7.64-1.02,11.62v42.19c0,3.34,2.34,6.03,5.23,6.03,1.73.3,4.3.54,7.29,0,6.64-1.19,7.82-4.86,12.55-5.12,5.81-.32,6.45,5.09,12.5,5.12,5.92.01,6.75-5.17,12.65-5.12,5.82.05,6.6,5.13,12.4,5.12,5.93-.01,6.53-5.34,12.28-5.12,4.77.18,6.04,3.91,12.76,5.12,3.09.55,5.68.28,7.29,0,2.89,0,5.23-2.7,5.23-6.03v-42.19c0-3.98-.35-7.87-1.02-11.62h.02ZM38.64,45.12c-1.87,7.56-8.41,12.32-14.61,10.61s-9.72-9.22-7.84-16.78c1.87-7.56,8.41-12.32,14.61-10.61,6.2,1.71,9.72,9.22,7.84,16.78ZM49.96,67.34c-4.81,0-8.71-4.12-8.71-9.18,0-.89.69-1.62,1.53-1.62s1.53.72,1.53,1.62c0,3.27,2.53,5.94,5.63,5.94s5.63-2.67,5.63-5.94c0-.89.69-1.62,1.53-1.62s1.53.72,1.53,1.62c0,5.07-3.91,9.18-8.71,9.18h.02ZM76.2,55.73c-6.2,1.71-12.75-3.05-14.61-10.61-1.87-7.56,1.64-15.07,7.84-16.78,6.2-1.71,12.75,3.05,14.61,10.61s-1.64,15.07-7.84,16.78Z"/>
    </g>
  </g>
</svg>