<?xml version="1.0" encoding="UTF-8"?>
<svg id="Layer_2" data-name="Layer 2" xmlns="http://www.w3.org/2000/svg" viewBox="0 0 814.21 182.38">
  <defs>
    <style>
      .cls-1 {
        fill: #fdffd1;
        stroke-width: 0px;
      }
    </style>
  </defs>
  <g id="Layer_1-2" data-name="Layer 1">
    <g>
      <g>
        <path class="cls-1" d="M708.34,57.15c-2.41,0-4.64-.26-6.7-.78-2.06-.52-3.73-1.5-5.02-2.96-1.28-1.45-1.93-3.61-1.93-6.46,0-2.39.56-4.39,1.69-5.99,1.12-1.61,2.51-2.98,4.17-4.13,1.66-1.14,3.26-2.18,4.82-3.11l12.44-7.55c2.03-1.25,3.37-2.28,4.01-3.11.64-.83.96-1.74.96-2.72,0-.88-.28-1.64-.84-2.26-.56-.62-1.86-.93-3.89-.93s-4.07.21-6.26.62c-2.19.42-4.31.62-6.34.62-2.94,0-5.34-.69-7.18-2.06-1.85-1.37-2.77-3.41-2.77-6.11s.96-4.63,2.89-6.11c1.93-1.48,4.54-2.53,7.83-3.15,3.29-.62,6.97-.93,11.04-.93,6.58,0,11.68,1.19,15.29,3.58,3.61,2.39,5.42,6.1,5.42,11.13,0,3.48-1.03,6.44-3.09,8.88-2.06,2.44-4.91,4.83-8.55,7.16l-14.85,9.5h18.38c3,0,5.36.71,7.1,2.14,1.74,1.43,2.61,3.54,2.61,6.35s-.87,4.9-2.61,6.31c-1.74,1.4-4.11,2.1-7.1,2.1h-21.51Z"/>
        <path class="cls-1" d="M754.57,58.63c-3.16,0-5.62-.82-7.38-2.45-1.77-1.64-2.65-3.8-2.65-6.5s.91-4.98,2.73-6.7c1.82-1.71,4.25-2.57,7.3-2.57s5.39.84,7.18,2.53c1.79,1.69,2.69,3.91,2.69,6.66s-.86,4.88-2.57,6.54c-1.71,1.66-4.15,2.49-7.3,2.49Z"/>
        <path class="cls-1" d="M791.25,57.38c-5.35,0-9.71-1.17-13.08-3.5-3.37-2.34-5.85-5.66-7.42-9.97-1.58-4.31-2.37-9.37-2.37-15.18s.84-10.86,2.53-15.14c1.69-4.28,4.21-7.62,7.58-10,3.37-2.39,7.63-3.58,12.76-3.58s9.4,1.19,12.8,3.58c3.4,2.39,5.94,5.72,7.63,10,1.69,4.28,2.53,9.33,2.53,15.14s-.79,10.87-2.37,15.18c-1.58,4.31-4.05,7.63-7.42,9.97-3.37,2.34-7.76,3.5-13.16,3.5ZM777.37,27.64c0,1.61.36,3.13,1.08,4.55.72,1.43,2.09,2.57,4.09,3.43,2.01.86,4.91,1.28,8.71,1.28s6.78-.43,8.79-1.28c2.01-.86,3.37-2,4.09-3.43.72-1.43,1.08-2.94,1.08-4.55s-.36-3.15-1.08-4.48c-.72-1.32-2.09-2.39-4.09-3.19-2.01-.8-4.94-1.21-8.79-1.21s-6.7.4-8.71,1.21c-2.01.81-3.37,1.87-4.09,3.19-.72,1.32-1.08,2.82-1.08,4.48Z"/>
      </g>
      <g>
        <path class="cls-1" d="M41.62,96.68l28.25-39.94c5.02-7.17,10.49-11.2,16.38-12.14s11.25.46,16.02,4.24c3.13,2.4,5.21,5.58,6.22,9.61,1.01,4.01.69,8.3-.94,12.81-1.64,4.52-4.89,8.78-9.79,12.81l-31.46,25.42v3.96c4.01,0,8.73.51,14.13,1.5,5.39,1.01,10.3,3.27,14.7,6.77,3.5,2.63,6.57,5.65,9.13,9.03,2.58,3.39,4.61,7.56,6.13,12.54,1.5,4.95,2.26,11.2,2.26,18.73,0,6.15-1.66,11.08-5,14.79-3.32,3.71-8.25,5.55-14.79,5.55s-11.52-1.84-14.98-5.55-5.18-8.64-5.18-14.79c0-6.91-1.11-12.4-3.3-16.48-2.19-4.08-5.12-7.05-8.76-8.94s-7.6-2.83-11.87-2.83h-9.22v29.57c0,5.39-1.84,9.86-5.55,13.37-3.71,3.53-8.46,5.28-14.22,5.28s-10.51-1.75-14.22-5.28c-3.71-3.5-5.55-7.97-5.55-13.37V63.7c0-5.53,1.82-10.16,5.46-13.94,3.64-3.76,8.41-5.65,14.31-5.65,6.27,0,11.15,1.84,14.59,5.55,3.46,3.71,5.18,8.25,5.18,13.67v32.95l2.07.37v.02Z"/>
        <path class="cls-1" d="M119.6,61.26c0-5.39,1.66-9.77,5-13.09s7.95-5,13.85-5c6.27,0,10.95,1.64,14.03,4.89,3.06,3.27,4.61,7.6,4.61,13s-1.54,9.52-4.61,12.72c-3.09,3.2-7.77,4.79-14.03,4.79s-10.83-1.59-14.03-4.79c-3.2-3.2-4.79-7.37-4.79-12.54l-.02.02ZM138.43,181.62c-5.9,0-10.3-1.64-13.18-4.89-2.88-3.27-4.33-7.35-4.33-12.24v-64.41c0-5.39,1.45-9.68,4.33-12.81s7.28-4.7,13.18-4.7,10.32,1.57,13.27,4.7,4.42,7.28,4.42,12.42v64.8c0,4.89-1.54,8.99-4.61,12.24-3.09,3.27-7.44,4.89-13.09,4.89Z"/>
        <path class="cls-1" d="M210,181.62c-7.28,0-13.23-2.37-17.79-7.17-4.59-4.77-8.76-12.63-12.54-23.55l-14.31-42.56c-1.64-4.77-1.71-9.61-.18-14.49,1.5-4.91,4.95-8.23,10.37-9.98,5.02-1.75,9.61-1.64,13.76.37s7.03,5.46,8.66,10.37l15.44,46.16c1.75,5.39,3.57,9.01,5.46,10.83,1.89,1.82,4.4,2.24,7.54,1.22,2.63-.88,4.31-2.79,5-5.74s-.23-8.07-2.74-15.35l-7.72-23.37c-1.64-4.89-1.66-9.77-.09-14.59,1.57-4.84,5.05-8.13,10.46-9.89,5.02-1.75,9.61-1.64,13.76.37s7.03,5.46,8.66,10.37l15.83,48.21c1.01,2.88,2.58,5.53,4.7,7.9,2.14,2.4,4.89,3.09,8.3,2.07,2.63-.88,4.36-2.63,5.18-5.28.81-2.63.67-5.71-.46-9.24-1.5-4.77-3.18-8.53-5-11.29s-3.57-5.14-5.28-7.17c-1.71-2-3.09-4.15-4.15-6.41s-1.73-5.35-1.98-9.24c-.25-4.01.6-7.56,2.53-10.65,1.94-3.06,4.59-5.48,7.9-7.26,3.32-1.75,7.01-2.63,11.02-2.63,6.15,0,11.13,2.05,14.98,6.13,3.83,4.08,5.74,8.9,5.74,14.4,0,2-.32,4.65-.94,7.9-.62,3.27-1.45,6.29-2.44,9.03l-7.9,20.53c-1.64,4.52-3.48,9.13-5.55,13.85s-4.45,9.01-7.17,12.9c-2.7,3.89-5.81,7.07-9.33,9.52s-7.6,3.66-12.24,3.66c-8.04,0-14.47-2.07-19.31-6.22-4.84-4.15-8.64-10.99-11.41-20.53h-1.89c-1.64,7.79-4.33,14.2-8.09,19.22-3.76,5.02-9.36,7.54-16.75,7.54l-.02.02Z"/>
        <path class="cls-1" d="M319.99,61.26c0-5.39,1.66-9.77,5-13.09s7.95-5,13.85-5c6.27,0,10.95,1.64,14.03,4.89,3.06,3.27,4.61,7.6,4.61,13s-1.54,9.52-4.61,12.72c-3.09,3.2-7.77,4.79-14.03,4.79s-10.83-1.59-14.03-4.79c-3.2-3.2-4.79-7.37-4.79-12.54l-.02.02ZM338.82,181.62c-5.9,0-10.3-1.64-13.18-4.89-2.88-3.27-4.33-7.35-4.33-12.24v-64.41c0-5.39,1.45-9.68,4.33-12.81s7.28-4.7,13.18-4.7,10.32,1.57,13.27,4.7,4.42,7.28,4.42,12.42v64.8c0,4.89-1.54,8.99-4.61,12.24-3.09,3.27-7.44,4.89-13.09,4.89Z"/>
        <path class="cls-1" d="M442.43,181.43c-5.78-.25-11.15-1.06-16.11-2.44-4.95-1.38-9.33-3.73-13.09-7.05-3.76-3.32-6.68-7.95-8.76-13.85-2.07-5.9-3.11-13.43-3.11-22.61s1.22-16.64,3.66-23.16,5.37-11.73,8.76-15.62,6.48-6.27,9.22-7.17l-.94-3.57h-3.2c-5.78,0-10.32-1.84-13.67-5.55-3.32-3.71-5.05-8.69-5.18-14.98-.12-6.27,1.54-11.34,5-15.16s8.07-5.74,13.85-5.74h51.8c13.55,0,23.34,3.23,29.38,9.7,6.04,6.48,9.03,14.84,9.03,25.14,0,8.3-1.91,15.19-5.74,20.72-3.83,5.53-9.59,8.85-17.24,9.98v2.83c8.3.37,15.02,3.23,20.26,8.57,5.21,5.35,7.81,13.23,7.81,23.64,0,11.29-3.27,20.26-9.79,26.85-6.52,6.59-17.26,9.82-32.22,9.7l-29.75-.18.02-.05ZM437.33,96.86c0,2.77.51,4.59,1.5,5.46,1.01.88,2.88,1.31,5.65,1.31h17.33c4.77,0,8.41-.71,10.92-2.17,2.51-1.45,3.76-4.31,3.76-8.57s-1.27-7.28-3.76-8.66c-2.51-1.38-6.15-2.07-10.92-2.07h-17.33c-2.77,0-4.65.37-5.65,1.13-1.01.76-1.5,2.58-1.5,5.46v8.11ZM437.33,134.72c0,2.77.53,4.65,1.59,5.65,1.06,1.01,3.04,1.5,5.92,1.5h19.4c4.91,0,8.66-.88,11.29-2.63,2.63-1.75,3.96-4.89,3.96-9.43s-1.31-7.63-3.96-9.33c-2.63-1.71-6.41-2.53-11.29-2.53h-19.4c-2.88,0-4.86.44-5.92,1.31-1.06.88-1.59,2.7-1.59,5.46v10Z"/>
        <path class="cls-1" d="M569.56,182.01c-14.7,0-26.41-4.36-35.12-13.09-8.73-8.73-13.09-21.06-13.09-37.01,0-9.79,2-18.39,6.04-25.81,4.01-7.4,9.63-13.2,16.85-17.42,7.21-4.19,15.67-6.31,25.33-6.31,10.81,0,19.77,2.1,26.94,6.31,7.17,4.22,12.54,10.02,16.11,17.42,3.57,7.42,5.37,16.02,5.37,25.81,0,15.95-3.99,28.28-11.96,37.01-7.97,8.73-20.12,13.09-36.46,13.09h0ZM543.75,128.71c0,3.89,1.94,6.64,5.83,8.2s10.55,2.35,19.96,2.35,16.06-.78,19.96-2.35,5.83-4.31,5.83-8.2-1.96-6.41-5.83-7.9c-3.89-1.5-10.55-2.26-19.96-2.26s-16.08.76-19.96,2.26c-3.89,1.5-5.83,4.15-5.83,7.9Z"/>
        <path class="cls-1" d="M672.41,182.19c-6.66,0-12.65-1.5-18-4.52s-9.52-7.31-12.54-12.9c-3.02-5.58-4.52-12.14-4.52-19.68v-33.16l-6.96.94c-3.76.51-7.1-.81-9.98-3.96-2.88-3.13-4.33-7.1-4.33-11.87s1.45-8.69,4.33-11.78c2.88-3.06,6.22-4.36,9.98-3.87l6.96.94-.18-12.81c-.12-5.02,1.31-9.01,4.33-11.96,3.02-2.95,7.4-4.42,13.18-4.42s10.23,1.47,13.37,4.42c3.13,2.95,4.59,6.94,4.33,11.96l-.37,12.81,9.98-1.31c6.77-1.01,11.94.23,15.44,3.66,3.5,3.46,5.28,7.56,5.28,12.33s-1.73,8.9-5.18,12.33c-3.46,3.46-8.46,4.75-14.98,3.87l-10.55-1.31v28.07c0,1.64.58,3.11,1.71,4.42s2.51,1.73,4.15,1.22c1.89-.51,3.87-1.57,5.92-3.2,2.07-1.64,4.75-2.44,8-2.44,4.91,0,8.66,1.75,11.29,5.28,2.63,3.53,3.96,7.86,3.96,13,0,4.01-1.41,7.88-4.24,11.59s-6.82,6.68-11.96,8.94c-5.14,2.26-11.29,3.39-18.46,3.39l.05.02Z"/>
      </g>
    </g>
  </g>
</svg>